<svg width="261" height="249" viewBox="0 0 261 249" fill="none" xmlns="http://www.w3.org/2000/svg">
<path d="M28.2274 51.0045C20.2694 91.8089 40.2375 133.394 70.9204 148.614C110.397 168.099 158.637 139.412 159.99 106.967C161.016 82.7514 136.211 50.5008 114.922 51.7236C95.4076 52.8391 83.9237 81.8391 83.217 103.717C81.7425 149.772 126.504 210.711 178.45 211.342C210.063 211.709 238.114 189.669 252.281 156.214" stroke="black" stroke-width="20" stroke-miterlimit="10"/>
<path d="M28.2274 51.0045C20.2694 91.8089 40.2375 133.394 70.9204 148.614C110.397 168.099 158.637 139.412 159.99 106.967C161.016 82.7514 136.211 50.5008 114.922 51.7236C95.4076 52.8391 83.9237 81.8391 83.217 103.717C81.7425 149.772 126.504 210.711 178.45 211.342C210.063 211.709 238.114 189.669 252.281 156.214" stroke="#C1272D" stroke-width="15" stroke-miterlimit="10"/>
</svg>
