<svg width="286" height="44" viewBox="0 0 286 44" fill="none" xmlns="http://www.w3.org/2000/svg">
<path d="M35.8887 25.9121C35.8887 26.7422 35.8561 27.7188 35.791 28.8418C35.791 29.0371 35.7096 29.1104 35.5469 29.0615C32.7799 28.443 28.2471 27.6211 21.9482 26.5957C16.3493 25.7005 13.4196 25.2529 13.1592 25.2529C12.7848 25.2529 12.5977 26.7829 12.5977 29.8428C12.5977 33.7002 13.444 36.5811 15.1367 38.4854C16.4225 39.9339 18.0745 40.707 20.0928 40.8047C21.2321 40.8535 22.2819 40.6826 23.2422 40.292C23.6165 40.1455 23.8037 39.999 23.8037 39.8525C23.8037 39.7549 23.7061 39.6735 23.5107 39.6084C21.3786 39.2178 19.637 38.4284 18.2861 37.2402C16.9352 36.0358 16.2598 34.6035 16.2598 32.9434C16.2598 31.9017 16.8457 31.0635 18.0176 30.4287C19.2057 29.7777 20.8171 29.4521 22.8516 29.4521C24.2513 29.4521 25.7324 29.5986 27.2949 29.8916C31.4941 30.7054 33.5938 32.39 33.5938 34.9453C33.5938 35.6615 33.3984 36.3939 33.0078 37.1426C31.9173 39.1934 30.5664 40.6582 28.9551 41.5371C26.6113 42.8066 23.0469 43.4414 18.2617 43.4414C12.7604 43.4414 8.36589 41.4069 5.07812 37.3379C2.26237 33.8711 0.854492 29.9567 0.854492 25.5947C0.854492 17.5381 7.43815 13.5098 20.6055 13.5098C28.2389 13.5098 32.9346 15.4222 34.6924 19.2471C35.4899 20.9886 35.8887 23.2103 35.8887 25.9121ZM26.5381 20.2969C26.5381 19.3854 25.944 18.6449 24.7559 18.0752C23.5677 17.4893 21.9971 17.1963 20.0439 17.1963C17.7653 17.1963 15.7878 17.4079 14.1113 17.8311C12.1419 18.3193 11.1572 18.9785 11.1572 19.8086C11.1572 21.9082 14.5182 22.958 21.2402 22.958C24.7721 22.958 26.5381 22.071 26.5381 20.2969ZM74.8291 24.5938C74.8291 25.2122 74.764 25.8958 74.6338 26.6445C73.9339 30.5996 72.583 33.8955 70.5811 36.5322C68.2699 39.5758 65.4867 41.0977 62.2314 41.0977C58.2275 41.0977 54.9072 40.3164 52.2705 38.7539C52.2542 38.8027 52.2461 38.876 52.2461 38.9736C52.2461 39.641 52.6611 41.1302 53.4912 43.4414C49.7965 41.6836 46.1751 40.8047 42.627 40.8047C40.4134 40.8047 38.8184 41.2197 37.8418 42.0498L37.9883 36.3613C38.5091 36.1172 39.1276 35.9951 39.8438 35.9951C41.0319 35.9951 42.277 36.3125 43.5791 36.9473C41.3818 28.8906 40.2832 18.8402 40.2832 6.7959C40.2832 5.52637 39.5671 4.76139 38.1348 4.50098C37.6139 4.4196 36.849 4.27311 35.8398 4.06152C35.4329 3.93132 35.2295 3.264 35.2295 2.05957C35.2295 1.81543 35.2458 1.57129 35.2783 1.32715C35.3109 1.08301 35.3271 0.944661 35.3271 0.912109C36.2223 1.15625 42.9769 1.78288 55.5908 2.79199C52.8239 8.91178 51.1882 15.2676 50.6836 21.8594C51.3184 21.0618 51.9531 20.2643 52.5879 19.4668C53.5645 18.3275 54.6549 17.416 55.8594 16.7324C57.4544 15.8047 59.3262 15.1943 61.4746 14.9014C62.4837 14.7712 63.4847 14.7061 64.4775 14.7061C68.335 14.7061 71.1426 15.8698 72.9004 18.1973C74.1862 19.9062 74.8291 22.0384 74.8291 24.5938ZM69.2871 28.9883C69.2871 27.9629 68.1315 27.0189 65.8203 26.1562C63.5742 25.3262 61.2142 24.9111 58.7402 24.9111C56.2826 24.9111 54.069 25.2285 52.0996 25.8633C50.1465 26.4818 49.1699 27.1979 49.1699 28.0117C49.1699 28.9395 50.3255 29.916 52.6367 30.9414C54.9479 31.9505 57.1126 32.4551 59.1309 32.4551C61.4909 32.4551 63.6963 32.1621 65.7471 31.5762C68.1071 30.8926 69.2871 30.0299 69.2871 28.9883ZM111.523 25.9121C111.523 26.7422 111.491 27.7188 111.426 28.8418C111.426 29.0371 111.344 29.1104 111.182 29.0615C108.415 28.443 103.882 27.6211 97.583 26.5957C91.984 25.7005 89.0544 25.2529 88.7939 25.2529C88.4196 25.2529 88.2324 26.7829 88.2324 29.8428C88.2324 33.7002 89.0788 36.5811 90.7715 38.4854C92.0573 39.9339 93.7093 40.707 95.7275 40.8047C96.8669 40.8535 97.9167 40.6826 98.877 40.292C99.2513 40.1455 99.4385 39.999 99.4385 39.8525C99.4385 39.7549 99.3408 39.6735 99.1455 39.6084C97.0133 39.2178 95.2718 38.4284 93.9209 37.2402C92.57 36.0358 91.8945 34.6035 91.8945 32.9434C91.8945 31.9017 92.4805 31.0635 93.6523 30.4287C94.8405 29.7777 96.4518 29.4521 98.4863 29.4521C99.8861 29.4521 101.367 29.5986 102.93 29.8916C107.129 30.7054 109.229 32.39 109.229 34.9453C109.229 35.6615 109.033 36.3939 108.643 37.1426C107.552 39.1934 106.201 40.6582 104.59 41.5371C102.246 42.8066 98.6816 43.4414 93.8965 43.4414C88.3952 43.4414 84.0007 41.4069 80.7129 37.3379C77.8971 33.8711 76.4893 29.9567 76.4893 25.5947C76.4893 17.5381 83.0729 13.5098 96.2402 13.5098C103.874 13.5098 108.569 15.4222 110.327 19.2471C111.125 20.9886 111.523 23.2103 111.523 25.9121ZM102.173 20.2969C102.173 19.3854 101.579 18.6449 100.391 18.0752C99.2025 17.4893 97.6318 17.1963 95.6787 17.1963C93.4001 17.1963 91.4225 17.4079 89.7461 17.8311C87.7767 18.3193 86.792 18.9785 86.792 19.8086C86.792 21.9082 90.153 22.958 96.875 22.958C100.407 22.958 102.173 22.071 102.173 20.2969ZM147.705 25.9121C147.705 26.7422 147.673 27.7188 147.607 28.8418C147.607 29.0371 147.526 29.1104 147.363 29.0615C144.596 28.443 140.063 27.6211 133.765 26.5957C128.166 25.7005 125.236 25.2529 124.976 25.2529C124.601 25.2529 124.414 26.7829 124.414 29.8428C124.414 33.7002 125.26 36.5811 126.953 38.4854C128.239 39.9339 129.891 40.707 131.909 40.8047C133.049 40.8535 134.098 40.6826 135.059 40.292C135.433 40.1455 135.62 39.999 135.62 39.8525C135.62 39.7549 135.522 39.6735 135.327 39.6084C133.195 39.2178 131.453 38.4284 130.103 37.2402C128.752 36.0358 128.076 34.6035 128.076 32.9434C128.076 31.9017 128.662 31.0635 129.834 30.4287C131.022 29.7777 132.633 29.4521 134.668 29.4521C136.068 29.4521 137.549 29.5986 139.111 29.8916C143.311 30.7054 145.41 32.39 145.41 34.9453C145.41 35.6615 145.215 36.3939 144.824 37.1426C143.734 39.1934 142.383 40.6582 140.771 41.5371C138.428 42.8066 134.863 43.4414 130.078 43.4414C124.577 43.4414 120.182 41.4069 116.895 37.3379C114.079 33.8711 112.671 29.9567 112.671 25.5947C112.671 17.5381 119.255 13.5098 132.422 13.5098C140.055 13.5098 144.751 15.4222 146.509 19.2471C147.306 20.9886 147.705 23.2103 147.705 25.9121ZM138.354 20.2969C138.354 19.3854 137.76 18.6449 136.572 18.0752C135.384 17.4893 133.813 17.1963 131.86 17.1963C129.582 17.1963 127.604 17.4079 125.928 17.8311C123.958 18.3193 122.974 18.9785 122.974 19.8086C122.974 21.9082 126.335 22.958 133.057 22.958C136.589 22.958 138.354 22.071 138.354 20.2969ZM166.504 42.6113C164.339 41.6673 162.191 41.1953 160.059 41.1953C157.21 41.1953 154.207 41.9603 151.05 43.4902C150.822 43.6042 150.675 43.6449 150.61 43.6123C150.529 43.5635 150.521 43.4089 150.586 43.1484C152.734 34.4896 153.809 27.3932 153.809 21.8594C153.809 17.0254 153.19 12.3867 151.953 7.94336C151.758 7.27604 151.302 6.80404 150.586 6.52734C150.033 6.33203 149.089 6.18555 147.754 6.08789C147.135 5.53451 146.883 4.20801 146.997 2.1084C147.095 2.14095 147.38 2.15723 147.852 2.15723C150.26 2.15723 155.575 1.7015 163.794 0.790039C164.901 4.66374 165.454 8.96875 165.454 13.7051C165.454 22.429 163.818 30.0299 160.547 36.5078C161.719 35.9382 162.899 35.6533 164.087 35.6533C165.031 35.6533 165.837 35.7998 166.504 36.0928V42.6113ZM204.395 25.9121C204.395 26.7422 204.362 27.7188 204.297 28.8418C204.297 29.0371 204.215 29.1104 204.053 29.0615C201.286 28.443 196.753 27.6211 190.454 26.5957C184.855 25.7005 181.925 25.2529 181.665 25.2529C181.291 25.2529 181.104 26.7829 181.104 29.8428C181.104 33.7002 181.95 36.5811 183.643 38.4854C184.928 39.9339 186.58 40.707 188.599 40.8047C189.738 40.8535 190.788 40.6826 191.748 40.292C192.122 40.1455 192.31 39.999 192.31 39.8525C192.31 39.7549 192.212 39.6735 192.017 39.6084C189.884 39.2178 188.143 38.4284 186.792 37.2402C185.441 36.0358 184.766 34.6035 184.766 32.9434C184.766 31.9017 185.352 31.0635 186.523 30.4287C187.712 29.7777 189.323 29.4521 191.357 29.4521C192.757 29.4521 194.238 29.5986 195.801 29.8916C200 30.7054 202.1 32.39 202.1 34.9453C202.1 35.6615 201.904 36.3939 201.514 37.1426C200.423 39.1934 199.072 40.6582 197.461 41.5371C195.117 42.8066 191.553 43.4414 186.768 43.4414C181.266 43.4414 176.872 41.4069 173.584 37.3379C170.768 33.8711 169.36 29.9567 169.36 25.5947C169.36 17.5381 175.944 13.5098 189.111 13.5098C196.745 13.5098 201.44 15.4222 203.198 19.2471C203.996 20.9886 204.395 23.2103 204.395 25.9121ZM195.044 20.2969C195.044 19.3854 194.45 18.6449 193.262 18.0752C192.074 17.4893 190.503 17.1963 188.55 17.1963C186.271 17.1963 184.294 17.4079 182.617 17.8311C180.648 18.3193 179.663 18.9785 179.663 19.8086C179.663 21.9082 183.024 22.958 189.746 22.958C193.278 22.958 195.044 22.071 195.044 20.2969ZM243.677 23.8613C243.677 26.14 241.61 27.8164 237.476 28.8906C235.083 29.5254 232.918 29.8428 230.981 29.8428C227.45 29.8428 225.684 28.8825 225.684 26.9619C225.684 24.7809 226.595 22.9336 228.418 21.4199C229.867 20.2155 231.706 19.3447 233.936 18.8076C234.131 18.7588 234.229 18.6204 234.229 18.3926C234.229 18.0182 233.822 17.6195 233.008 17.1963C232.08 16.7243 231.006 16.4883 229.785 16.4883C227.572 16.4883 225.627 17.1068 223.95 18.3438C221.883 19.8737 220.85 22.0384 220.85 24.8379C220.85 27.1491 221.582 30.6729 223.047 35.4092C223.177 35.8161 224.023 36.1823 225.586 36.5078C227.311 36.8496 229.492 37.11 232.129 37.2891C231.901 38.3145 231.624 39.5514 231.299 41C230.664 40.9674 229.728 40.9512 228.491 40.9512C221.004 40.9512 213.607 41.887 206.299 43.7588C205.811 43.0264 205.404 41.8708 205.078 40.292C205.046 40.113 205.135 39.9827 205.347 39.9014C207.3 39.0876 208.293 38.6807 208.325 38.6807C209.188 38.2249 209.644 37.6797 209.692 37.0449C209.904 35.3359 210.116 33.6351 210.327 31.9424C210.701 28.6546 210.889 26.1074 210.889 24.3008C210.889 22.3477 210.669 21.2165 210.229 20.9072C209.692 20.5003 208.911 20.2969 207.886 20.2969C207.511 20.2969 206.844 20.3783 205.884 20.541C205.623 20.5898 205.493 20.5573 205.493 20.4434C205.493 20.1992 205.387 19.3203 205.176 17.8066C204.98 16.2767 204.883 15.4222 204.883 15.2432C204.883 15.0153 205.021 14.9339 205.298 14.999C206.681 15.3734 208.081 15.5605 209.497 15.5605C212.948 15.5605 216.545 14.3073 220.288 11.8008C220.076 13.0866 219.808 14.7549 219.482 16.8057C222.087 14.3643 225.708 13.1436 230.347 13.1436C236.646 13.1436 240.796 15.5117 242.798 20.248C243.384 21.6803 243.677 22.8848 243.677 23.8613ZM285.107 41.1465C284.342 40.6094 283.097 40.3408 281.372 40.3408C279.289 40.3408 276.937 40.6826 274.316 41.3662C271.696 42.0498 269.645 42.8473 268.164 43.7588C268.734 41.0244 269.019 39.2015 269.019 38.29C269.019 38.0133 268.97 37.8831 268.872 37.8994C268.807 37.9157 268.701 37.9808 268.555 38.0947C265.82 40.3408 262.557 41.708 258.765 42.1963C256.958 42.4242 255.428 42.5381 254.175 42.5381C250.464 42.5381 247.803 41.7487 246.191 40.1699C244.743 38.7539 244.019 36.5811 244.019 33.6514C244.019 32.1214 244.165 30.4368 244.458 28.5977C245.06 24.9518 246.362 21.9408 248.364 19.5645C250.773 16.7487 253.857 15.3408 257.617 15.3408C261.686 15.3408 265.649 17.2126 269.507 20.9561C269.507 20.1423 269.279 18.9948 268.823 17.5137C268.319 15.9349 267.749 14.6491 267.114 13.6562C275.122 12.4355 280.656 11.2637 283.716 10.1406C284.009 11.166 284.155 12.1995 284.155 13.2412C284.155 14.0876 284.058 14.6084 283.862 14.8037C281.47 15.6175 280.273 16.3499 280.273 17.001V17.0498C280.273 17.5869 280.298 18.4333 280.347 19.5889C280.396 20.7445 280.42 21.6315 280.42 22.25C280.42 27.4746 279.753 31.7878 278.418 35.1895C279.492 34.5221 280.77 34.1885 282.251 34.1885C283.032 34.1885 283.757 34.278 284.424 34.457L285.107 41.1465ZM270.923 27.499C270.923 26.8154 270.239 26.2458 268.872 25.79C267.424 25.3018 265.535 25.0576 263.208 25.0576C260.164 25.0576 257.235 25.6273 254.419 26.7666C251.685 27.8896 250.317 29.0208 250.317 30.1602C250.317 31.0716 251.286 31.804 253.223 32.3574C254.964 32.8457 257.031 33.0898 259.424 33.0898C262.142 33.0898 264.771 32.4388 267.31 31.1367C269.718 29.8835 270.923 28.6709 270.923 27.499Z" fill="black"/>
</svg>
