<svg width="229" height="36" viewBox="0 0 229 36" fill="none" xmlns="http://www.w3.org/2000/svg">
<path d="M28.7109 20.9297C28.7109 21.5938 28.6849 22.375 28.6328 23.2734C28.6328 23.4297 28.5677 23.4883 28.4375 23.4492C26.224 22.9544 22.5977 22.2969 17.5586 21.4766C13.0794 20.7604 10.7357 20.4023 10.5273 20.4023C10.2279 20.4023 10.0781 21.6263 10.0781 24.0742C10.0781 27.1602 10.7552 29.4648 12.1094 30.9883C13.138 32.1471 14.4596 32.7656 16.0742 32.8438C16.9857 32.8828 17.8255 32.7461 18.5938 32.4336C18.8932 32.3164 19.043 32.1992 19.043 32.082C19.043 32.0039 18.9648 31.9388 18.8086 31.8867C17.1029 31.5742 15.7096 30.9427 14.6289 29.9922C13.5482 29.0286 13.0078 27.8828 13.0078 26.5547C13.0078 25.7214 13.4766 25.0508 14.4141 24.543C15.3646 24.0221 16.6536 23.7617 18.2812 23.7617C19.401 23.7617 20.5859 23.8789 21.8359 24.1133C25.1953 24.7643 26.875 26.112 26.875 28.1562C26.875 28.7292 26.7188 29.3151 26.4062 29.9141C25.5339 31.5547 24.4531 32.7266 23.1641 33.4297C21.2891 34.4453 18.4375 34.9531 14.6094 34.9531C10.2083 34.9531 6.69271 33.3255 4.0625 30.0703C1.8099 27.2969 0.683594 24.1654 0.683594 20.6758C0.683594 14.2305 5.95052 11.0078 16.4844 11.0078C22.5911 11.0078 26.3477 12.5378 27.7539 15.5977C28.3919 16.9909 28.7109 18.7682 28.7109 20.9297ZM21.2305 16.4375C21.2305 15.7083 20.7552 15.1159 19.8047 14.6602C18.8542 14.1914 17.5977 13.957 16.0352 13.957C14.2122 13.957 12.6302 14.1263 11.2891 14.4648C9.71354 14.8555 8.92578 15.3828 8.92578 16.0469C8.92578 17.7266 11.6146 18.5664 16.9922 18.5664C19.8177 18.5664 21.2305 17.8568 21.2305 16.4375ZM59.8633 19.875C59.8633 20.3698 59.8112 20.9167 59.707 21.5156C59.1471 24.6797 58.0664 27.3164 56.4648 29.4258C54.6159 31.8607 52.3893 33.0781 49.7852 33.0781C46.582 33.0781 43.9258 32.4531 41.8164 31.2031C41.8034 31.2422 41.7969 31.3008 41.7969 31.3789C41.7969 31.9128 42.1289 33.1042 42.793 34.9531C39.8372 33.5469 36.9401 32.8438 34.1016 32.8438C32.3307 32.8438 31.0547 33.1758 30.2734 33.8398L30.3906 29.2891C30.8073 29.0938 31.3021 28.9961 31.875 28.9961C32.8255 28.9961 33.8216 29.25 34.8633 29.7578C33.1055 23.3125 32.2266 15.2721 32.2266 5.63672C32.2266 4.62109 31.6536 4.00911 30.5078 3.80078C30.0911 3.73568 29.4792 3.61849 28.6719 3.44922C28.3464 3.34505 28.1836 2.8112 28.1836 1.84766C28.1836 1.65234 28.1966 1.45703 28.2227 1.26172C28.2487 1.06641 28.2617 0.955729 28.2617 0.929688C28.9779 1.125 34.3815 1.6263 44.4727 2.43359C42.2591 7.32943 40.9505 12.4141 40.5469 17.6875C41.0547 17.0495 41.5625 16.4115 42.0703 15.7734C42.8516 14.862 43.724 14.1328 44.6875 13.5859C45.9635 12.8438 47.4609 12.3555 49.1797 12.1211C49.987 12.0169 50.7878 11.9648 51.582 11.9648C54.668 11.9648 56.9141 12.8958 58.3203 14.7578C59.349 16.125 59.8633 17.8307 59.8633 19.875ZM55.4297 23.3906C55.4297 22.5703 54.5052 21.8151 52.6562 21.125C50.8594 20.4609 48.9714 20.1289 46.9922 20.1289C45.026 20.1289 43.2552 20.3828 41.6797 20.8906C40.1172 21.3854 39.3359 21.9583 39.3359 22.6094C39.3359 23.3516 40.2604 24.1328 42.1094 24.9531C43.9583 25.7604 45.6901 26.1641 47.3047 26.1641C49.1927 26.1641 50.957 25.9297 52.5977 25.4609C54.4857 24.9141 55.4297 24.224 55.4297 23.3906ZM89.2188 20.9297C89.2188 21.5938 89.1927 22.375 89.1406 23.2734C89.1406 23.4297 89.0755 23.4883 88.9453 23.4492C86.7318 22.9544 83.1055 22.2969 78.0664 21.4766C73.5872 20.7604 71.2435 20.4023 71.0352 20.4023C70.7357 20.4023 70.5859 21.6263 70.5859 24.0742C70.5859 27.1602 71.263 29.4648 72.6172 30.9883C73.6458 32.1471 74.9674 32.7656 76.582 32.8438C77.4935 32.8828 78.3333 32.7461 79.1016 32.4336C79.401 32.3164 79.5508 32.1992 79.5508 32.082C79.5508 32.0039 79.4727 31.9388 79.3164 31.8867C77.6107 31.5742 76.2174 30.9427 75.1367 29.9922C74.056 29.0286 73.5156 27.8828 73.5156 26.5547C73.5156 25.7214 73.9844 25.0508 74.9219 24.543C75.8724 24.0221 77.1615 23.7617 78.7891 23.7617C79.9089 23.7617 81.0938 23.8789 82.3438 24.1133C85.7031 24.7643 87.3828 26.112 87.3828 28.1562C87.3828 28.7292 87.2266 29.3151 86.9141 29.9141C86.0417 31.5547 84.9609 32.7266 83.6719 33.4297C81.7969 34.4453 78.9453 34.9531 75.1172 34.9531C70.7161 34.9531 67.2005 33.3255 64.5703 30.0703C62.3177 27.2969 61.1914 24.1654 61.1914 20.6758C61.1914 14.2305 66.4583 11.0078 76.9922 11.0078C83.099 11.0078 86.8555 12.5378 88.2617 15.5977C88.8997 16.9909 89.2188 18.7682 89.2188 20.9297ZM81.7383 16.4375C81.7383 15.7083 81.263 15.1159 80.3125 14.6602C79.362 14.1914 78.1055 13.957 76.543 13.957C74.7201 13.957 73.138 14.1263 71.7969 14.4648C70.2214 14.8555 69.4336 15.3828 69.4336 16.0469C69.4336 17.7266 72.1224 18.5664 77.5 18.5664C80.3255 18.5664 81.7383 17.8568 81.7383 16.4375ZM118.164 20.9297C118.164 21.5938 118.138 22.375 118.086 23.2734C118.086 23.4297 118.021 23.4883 117.891 23.4492C115.677 22.9544 112.051 22.2969 107.012 21.4766C102.533 20.7604 100.189 20.4023 99.9805 20.4023C99.681 20.4023 99.5312 21.6263 99.5312 24.0742C99.5312 27.1602 100.208 29.4648 101.562 30.9883C102.591 32.1471 103.913 32.7656 105.527 32.8438C106.439 32.8828 107.279 32.7461 108.047 32.4336C108.346 32.3164 108.496 32.1992 108.496 32.082C108.496 32.0039 108.418 31.9388 108.262 31.8867C106.556 31.5742 105.163 30.9427 104.082 29.9922C103.001 29.0286 102.461 27.8828 102.461 26.5547C102.461 25.7214 102.93 25.0508 103.867 24.543C104.818 24.0221 106.107 23.7617 107.734 23.7617C108.854 23.7617 110.039 23.8789 111.289 24.1133C114.648 24.7643 116.328 26.112 116.328 28.1562C116.328 28.7292 116.172 29.3151 115.859 29.9141C114.987 31.5547 113.906 32.7266 112.617 33.4297C110.742 34.4453 107.891 34.9531 104.062 34.9531C99.6615 34.9531 96.1458 33.3255 93.5156 30.0703C91.263 27.2969 90.1367 24.1654 90.1367 20.6758C90.1367 14.2305 95.4036 11.0078 105.938 11.0078C112.044 11.0078 115.801 12.5378 117.207 15.5977C117.845 16.9909 118.164 18.7682 118.164 20.9297ZM110.684 16.4375C110.684 15.7083 110.208 15.1159 109.258 14.6602C108.307 14.1914 107.051 13.957 105.488 13.957C103.665 13.957 102.083 14.1263 100.742 14.4648C99.1667 14.8555 98.3789 15.3828 98.3789 16.0469C98.3789 17.7266 101.068 18.5664 106.445 18.5664C109.271 18.5664 110.684 17.8568 110.684 16.4375ZM133.203 34.2891C131.471 33.5339 129.753 33.1562 128.047 33.1562C125.768 33.1562 123.366 33.7682 120.84 34.9922C120.658 35.0833 120.54 35.1159 120.488 35.0898C120.423 35.0508 120.417 34.9271 120.469 34.7188C122.188 27.7917 123.047 22.1146 123.047 17.6875C123.047 13.8203 122.552 10.1094 121.562 6.55469C121.406 6.02083 121.042 5.64323 120.469 5.42188C120.026 5.26562 119.271 5.14844 118.203 5.07031C117.708 4.6276 117.507 3.56641 117.598 1.88672C117.676 1.91276 117.904 1.92578 118.281 1.92578C120.208 1.92578 124.46 1.5612 131.035 0.832031C131.921 3.93099 132.363 7.375 132.363 11.1641C132.363 18.1432 131.055 24.224 128.438 29.4062C129.375 28.9505 130.319 28.7227 131.27 28.7227C132.025 28.7227 132.669 28.8398 133.203 29.0742V34.2891ZM163.516 20.9297C163.516 21.5938 163.49 22.375 163.438 23.2734C163.438 23.4297 163.372 23.4883 163.242 23.4492C161.029 22.9544 157.402 22.2969 152.363 21.4766C147.884 20.7604 145.54 20.4023 145.332 20.4023C145.033 20.4023 144.883 21.6263 144.883 24.0742C144.883 27.1602 145.56 29.4648 146.914 30.9883C147.943 32.1471 149.264 32.7656 150.879 32.8438C151.79 32.8828 152.63 32.7461 153.398 32.4336C153.698 32.3164 153.848 32.1992 153.848 32.082C153.848 32.0039 153.77 31.9388 153.613 31.8867C151.908 31.5742 150.514 30.9427 149.434 29.9922C148.353 29.0286 147.812 27.8828 147.812 26.5547C147.812 25.7214 148.281 25.0508 149.219 24.543C150.169 24.0221 151.458 23.7617 153.086 23.7617C154.206 23.7617 155.391 23.8789 156.641 24.1133C160 24.7643 161.68 26.112 161.68 28.1562C161.68 28.7292 161.523 29.3151 161.211 29.9141C160.339 31.5547 159.258 32.7266 157.969 33.4297C156.094 34.4453 153.242 34.9531 149.414 34.9531C145.013 34.9531 141.497 33.3255 138.867 30.0703C136.615 27.2969 135.488 24.1654 135.488 20.6758C135.488 14.2305 140.755 11.0078 151.289 11.0078C157.396 11.0078 161.152 12.5378 162.559 15.5977C163.197 16.9909 163.516 18.7682 163.516 20.9297ZM156.035 16.4375C156.035 15.7083 155.56 15.1159 154.609 14.6602C153.659 14.1914 152.402 13.957 150.84 13.957C149.017 13.957 147.435 14.1263 146.094 14.4648C144.518 14.8555 143.73 15.3828 143.73 16.0469C143.73 17.7266 146.419 18.5664 151.797 18.5664C154.622 18.5664 156.035 17.8568 156.035 16.4375ZM194.941 19.2891C194.941 21.112 193.288 22.4531 189.98 23.3125C188.066 23.8203 186.335 24.0742 184.785 24.0742C181.96 24.0742 180.547 23.306 180.547 21.7695C180.547 20.0247 181.276 18.5469 182.734 17.3359C183.893 16.3724 185.365 15.6758 187.148 15.2461C187.305 15.207 187.383 15.0964 187.383 14.9141C187.383 14.6146 187.057 14.2956 186.406 13.957C185.664 13.5794 184.805 13.3906 183.828 13.3906C182.057 13.3906 180.501 13.8854 179.16 14.875C177.507 16.099 176.68 17.8307 176.68 20.0703C176.68 21.9193 177.266 24.7383 178.438 28.5273C178.542 28.8529 179.219 29.1458 180.469 29.4062C181.849 29.6797 183.594 29.888 185.703 30.0312C185.521 30.8516 185.299 31.8411 185.039 33C184.531 32.974 183.783 32.9609 182.793 32.9609C176.803 32.9609 170.885 33.7096 165.039 35.207C164.648 34.6211 164.323 33.6966 164.062 32.4336C164.036 32.2904 164.108 32.1862 164.277 32.1211C165.84 31.4701 166.634 31.1445 166.66 31.1445C167.35 30.7799 167.715 30.3438 167.754 29.8359C167.923 28.4688 168.092 27.1081 168.262 25.7539C168.561 23.1237 168.711 21.0859 168.711 19.6406C168.711 18.0781 168.535 17.1732 168.184 16.9258C167.754 16.6003 167.129 16.4375 166.309 16.4375C166.009 16.4375 165.475 16.5026 164.707 16.6328C164.499 16.6719 164.395 16.6458 164.395 16.5547C164.395 16.3594 164.31 15.6562 164.141 14.4453C163.984 13.2214 163.906 12.5378 163.906 12.3945C163.906 12.2122 164.017 12.1471 164.238 12.1992C165.345 12.4987 166.465 12.6484 167.598 12.6484C170.358 12.6484 173.236 11.6458 176.23 9.64062C176.061 10.6693 175.846 12.0039 175.586 13.6445C177.669 11.6914 180.566 10.7148 184.277 10.7148C189.316 10.7148 192.637 12.6094 194.238 16.3984C194.707 17.5443 194.941 18.5078 194.941 19.2891ZM228.086 33.1172C227.474 32.6875 226.478 32.4727 225.098 32.4727C223.431 32.4727 221.549 32.7461 219.453 33.293C217.357 33.8398 215.716 34.4779 214.531 35.207C214.987 33.0195 215.215 31.5612 215.215 30.832C215.215 30.6107 215.176 30.5065 215.098 30.5195C215.046 30.5326 214.961 30.5846 214.844 30.6758C212.656 32.4727 210.046 33.5664 207.012 33.957C205.566 34.1393 204.342 34.2305 203.34 34.2305C200.371 34.2305 198.242 33.599 196.953 32.3359C195.794 31.2031 195.215 29.4648 195.215 27.1211C195.215 25.8971 195.332 24.5495 195.566 23.0781C196.048 20.1615 197.09 17.7526 198.691 15.8516C200.618 13.599 203.086 12.4727 206.094 12.4727C209.349 12.4727 212.52 13.9701 215.605 16.9648C215.605 16.3138 215.423 15.3958 215.059 14.2109C214.655 12.9479 214.199 11.9193 213.691 11.125C220.098 10.1484 224.525 9.21094 226.973 8.3125C227.207 9.13281 227.324 9.95964 227.324 10.793C227.324 11.4701 227.246 11.8867 227.09 12.043C225.176 12.694 224.219 13.2799 224.219 13.8008V13.8398C224.219 14.2695 224.238 14.9466 224.277 15.8711C224.316 16.7956 224.336 17.5052 224.336 18C224.336 22.1797 223.802 25.6302 222.734 28.3516C223.594 27.8177 224.616 27.5508 225.801 27.5508C226.426 27.5508 227.005 27.6224 227.539 27.7656L228.086 33.1172ZM216.738 22.1992C216.738 21.6523 216.191 21.1966 215.098 20.832C213.939 20.4414 212.428 20.2461 210.566 20.2461C208.132 20.2461 205.788 20.7018 203.535 21.6133C201.348 22.5117 200.254 23.4167 200.254 24.3281C200.254 25.0573 201.029 25.6432 202.578 26.0859C203.971 26.4766 205.625 26.6719 207.539 26.6719C209.714 26.6719 211.816 26.151 213.848 25.1094C215.775 24.1068 216.738 23.1367 216.738 22.1992Z" fill="#403F3F"/>
</svg>
