<svg width="331" height="181" viewBox="0 0 331 181" fill="none" xmlns="http://www.w3.org/2000/svg">
<g clip-path="url(#clip0_313_57)">
<path d="M-18.8901 124.5C-7.13014 150.42 15.6899 168.35 41.1099 170.5C80.7199 173.85 119.5 138.28 118.11 102.5C117.11 75.97 93.7399 44.08 69.1099 47.5C49.7199 50.19 32.9499 74.27 36.1099 94.5C39.7499 117.89 68.7499 127.87 85.1099 133.5C128.68 148.5 187.11 141.2 221.11 104.5C226.7 98.5 245.52 78.18 245.11 50.5C245 43.5 244.79 29.57 234.11 19.5C229.633 15.3155 224.14 12.3755 218.175 10.972C212.211 9.56856 205.982 9.75059 200.11 11.5C186.88 15.58 177.11 27.43 176.11 39.5C174.55 57.93 193.84 71.12 206.11 79.5C221.45 89.99 235.79 93.14 247.11 95.5C264.06 99.04 291.51 104.78 312.11 89.5C315.909 86.6671 319.277 83.2988 322.11 79.5" stroke="black" stroke-width="20" stroke-miterlimit="10"/>
<path d="M-18.8901 124.5C-7.13014 150.42 15.6899 168.35 41.1099 170.5C80.7199 173.85 119.5 138.28 118.11 102.5C117.11 75.97 93.7399 44.08 69.1099 47.5C49.7199 50.19 32.9499 74.27 36.1099 94.5C39.7499 117.89 68.7499 127.87 85.1099 133.5C128.68 148.5 187.11 141.2 221.11 104.5C226.7 98.5 245.52 78.18 245.11 50.5C245 43.5 244.79 29.57 234.11 19.5C229.633 15.3155 224.14 12.3755 218.175 10.972C212.211 9.56856 205.982 9.75059 200.11 11.5C186.88 15.58 177.11 27.43 176.11 39.5C174.55 57.93 193.84 71.12 206.11 79.5C221.45 89.99 235.79 93.14 247.11 95.5C264.06 99.04 291.51 104.78 312.11 89.5C315.909 86.6671 319.277 83.2988 322.11 79.5" stroke="#0071BC" stroke-width="15" stroke-miterlimit="10"/>
</g>
<defs>
<clipPath id="clip0_313_57">
<rect width="358.11" height="180.72" fill="white" transform="translate(-28)"/>
</clipPath>
</defs>
</svg>
