<svg xmlns="http://www.w3.org/2000/svg" viewBox="0 0 358.11 180.72"><defs><style>.cls-1,.cls-2{fill:none;stroke-miterlimit:10;}.cls-1{stroke:#000;stroke-width:20px;}.cls-2{stroke:#0071bc;stroke-width:15px;}</style></defs><g id="Слой_2" data-name="Слой 2"><g id="Слой_1-2" data-name="Слой 1"><path class="cls-1" d="M9.11,124.5c11.76,25.92,34.58,43.85,60,46,39.61,3.35,78.39-32.22,77-68-1-26.53-24.37-58.42-49-55-19.39,2.69-36.16,26.77-33,47,3.64,23.39,32.64,33.37,49,39,43.57,15,102,7.7,136-29,5.59-6,24.41-26.32,24-54-.11-7-.32-20.93-11-31a35.11,35.11,0,0,0-34-8c-13.23,4.08-23,15.93-24,28-1.56,18.43,17.73,31.62,30,40,15.34,10.49,29.68,13.64,41,16,16.95,3.54,44.4,9.28,65-6a49.06,49.06,0,0,0,10-10"/><path class="cls-2" d="M9.11,124.5c11.76,25.92,34.58,43.85,60,46,39.61,3.35,78.39-32.22,77-68-1-26.53-24.37-58.42-49-55-19.39,2.69-36.16,26.77-33,47,3.64,23.39,32.64,33.37,49,39,43.57,15,102,7.7,136-29,5.59-6,24.41-26.32,24-54-.11-7-.32-20.93-11-31a35.11,35.11,0,0,0-34-8c-13.23,4.08-23,15.93-24,28-1.56,18.43,17.73,31.62,30,40,15.34,10.49,29.68,13.64,41,16,16.95,3.54,44.4,9.28,65-6a49.06,49.06,0,0,0,10-10"/></g></g></svg>