<svg xmlns="http://www.w3.org/2000/svg" viewBox="0 0 192.24 102.74"><defs><style>.cls-1,.cls-2{fill:none;stroke-miterlimit:10;}.cls-1{stroke:#000;stroke-width:20px;}.cls-2{stroke:#c1272d;stroke-width:15px;}</style></defs><g id="Слой_2" data-name="Слой 2"><g id="Слой_1-2" data-name="Слой 1"><path class="cls-1" d="M9.39,53.79c10.1,27.62,37.15,43,61,38,30.65-6.49,49-45.3,38-65-8.2-14.71-34.74-22.4-47-12-11.24,9.53-7.54,31.81,0,45,15.88,27.76,64.77,43.25,96,20,19-14.16,27.72-39.88,24-66"/><path class="cls-2" d="M9.39,53.79c10.1,27.62,37.15,43,61,38,30.65-6.49,49-45.3,38-65-8.2-14.71-34.74-22.4-47-12-11.24,9.53-7.54,31.81,0,45,15.88,27.76,64.77,43.25,96,20,19-14.16,27.72-39.88,24-66"/></g></g></svg>